HIERARCHY
ROOT hip
{
  OFFSET 0 0 0
  CHANNELS 6 Xposition Yposition Zposition Zrotation Yrotation Xrotation
  JOINT abdomen
  {
    OFFSET 0 20.6881 -0.73152
    CHANNELS 3 Zrotation Xrotation Yrotation
    JOINT chest
    {
      OFFSET 0 11.7043 -0.48768
      CHANNELS 3 Zrotation Xrotation Yrotation
      JOINT neck
      {
        OFFSET 0 22.1894 -2.19456
        CHANNELS 3 Zrotation Xrotation Yrotation
        JOINT head
        {
          OFFSET -0.24384 7.07133 1.2192
          CHANNELS 3 Zrotation Xrotation Yrotation
          JOINT leftEye
          {
            OFFSET 4.14528 8.04674 8.04672
            CHANNELS 3 Zrotation Xrotation Yrotation
            End Site
            {
              OFFSET 1 0 0
            }
          }
          JOINT rightEye
          {
            OFFSET -3.6576 8.04674 8.04672
            CHANNELS 3 Zrotation Xrotation Yrotation
            End Site
            {
              OFFSET 1 0 0
            }
          }
        }
      }
      JOINT rCollar
      {
        OFFSET -2.68224 19.2634 -4.8768
        CHANNELS 3 Zrotation Xrotation Yrotation
        JOINT rShldr
        {
          OFFSET -8.77824 -1.95073 1.46304
          CHANNELS 3 Zrotation Xrotation Yrotation
          JOINT rForeArm
          {
            OFFSET -28.1742 -1.7115 0.48768
            CHANNELS 3 Zrotation Xrotation Yrotation
            JOINT rHand
            {
              OFFSET -22.5879 0.773209 7.07136
              CHANNELS 3 Zrotation Xrotation Yrotation
              JOINT rThumb1
              {
                OFFSET -1.2192 -0.487915 3.41376
                CHANNELS 3 Zrotation Xrotation Yrotation
                JOINT rThumb2
                {
                  OFFSET -3.37035 -0.52449 3.41376
                  CHANNELS 3 Zrotation Xrotation Yrotation
                  End Site
                  {
                    OFFSET -1.78271 -1.18214 1.43049
                  }
                }
              }
              JOINT rIndex1
              {
                OFFSET -7.75947 0.938293 5.60832
                CHANNELS 3 Zrotation Xrotation Yrotation
                JOINT rIndex2
                {
                  OFFSET -2.54057 -0.884171 1.56538
                  CHANNELS 3 Zrotation Xrotation Yrotation
                  End Site
                  {
                    OFFSET -1.62519 -0.234802 1.16502
                  }
                }
              }
              JOINT rMid1
              {
                OFFSET -8.24714 1.18213 3.41376
                CHANNELS 3 Zrotation Xrotation Yrotation
                JOINT rMid2
                {
                  OFFSET -3.10165 -0.590103 1.0647
                  CHANNELS 3 Zrotation Xrotation Yrotation
                  End Site
                  {
                    OFFSET -2.48547 -0.328903 0.83742
                  }
                }
              }
              JOINT rRing1
              {
                OFFSET -8.82822 0.546677 1.51678
                CHANNELS 3 Zrotation Xrotation Yrotation
                JOINT rRing2
                {
                  OFFSET -2.60934 -0.819778 -0.0198488
                  CHANNELS 3 Zrotation Xrotation Yrotation
                  End Site
                  {
                    OFFSET -2.33842 -0.294052 0.168128
                  }
                }
              }
              JOINT rPinky1
              {
                OFFSET -8.27202 -0.0477905 -0.4584
                CHANNELS 3 Zrotation Xrotation Yrotation
                JOINT rPinky2
                {
                  OFFSET -1.82734 -0.647385 -0.700984
                  CHANNELS 3 Zrotation Xrotation Yrotation
                  End Site
                  {
                    OFFSET -1.69225 -0.51767 -0.607171
                  }
                }
              }
            }
          }
        }
      }
      JOINT lCollar
      {
        OFFSET 2.68224 19.2634 -4.8768
        CHANNELS 3 Zrotation Xrotation Yrotation
        JOINT lShldr
        {
          OFFSET 8.77824 -1.95073 1.46304
          CHANNELS 3 Zrotation Xrotation Yrotation
          JOINT lForeArm
          {
            OFFSET 28.1742 -1.7115 0.48768
            CHANNELS 3 Zrotation Xrotation Yrotation
            JOINT lHand
            {
              OFFSET 22.5879 0.773209 7.07136
              CHANNELS 3 Zrotation Xrotation Yrotation
              JOINT lThumb1
              {
                OFFSET 1.2192 -0.487915 3.41376
                CHANNELS 3 Zrotation Xrotation Yrotation
                JOINT lThumb2
                {
                  OFFSET 3.37035 -0.52449 3.41376
                  CHANNELS 3 Zrotation Xrotation Yrotation
                  End Site
                  {
                    OFFSET 1.78271 -1.18214 1.43049
                  }
                }
              }
              JOINT lIndex1
              {
                OFFSET 7.75947 0.938293 5.60832
                CHANNELS 3 Zrotation Xrotation Yrotation
                JOINT lIndex2
                {
                  OFFSET 2.54057 -0.884171 1.56538
                  CHANNELS 3 Zrotation Xrotation Yrotation
                  End Site
                  {
                    OFFSET 1.62519 -0.234802 1.16502
                  }
                }
              }
              JOINT lMid1
              {
                OFFSET 8.24714 1.18213 3.41376
                CHANNELS 3 Zrotation Xrotation Yrotation
                JOINT lMid2
                {
                  OFFSET 3.10165 -0.590103 1.0647
                  CHANNELS 3 Zrotation Xrotation Yrotation
                  End Site
                  {
                    OFFSET 2.48547 -0.328903 0.83742
                  }
                }
              }
              JOINT lRing1
              {
                OFFSET 8.82822 0.546677 1.51678
                CHANNELS 3 Zrotation Xrotation Yrotation
                JOINT lRing2
                {
                  OFFSET 2.60934 -0.819778 -0.0198488
                  CHANNELS 3 Zrotation Xrotation Yrotation
                  End Site
                  {
                    OFFSET 2.33842 -0.294052 0.168128
                  }
                }
              }
              JOINT lPinky1
              {
                OFFSET 8.27202 -0.0477905 -0.4584
                CHANNELS 3 Zrotation Xrotation Yrotation
                JOINT lPinky2
                {
                  OFFSET 1.82734 -0.647385 -0.700984
                  CHANNELS 3 Zrotation Xrotation Yrotation
                  End Site
                  {
                    OFFSET 1.69225 -0.51767 -0.607171
                  }
                }
              }
            }
          }
        }
      }
    }
  }
  JOINT rButtock
  {
    OFFSET -8.77824 4.35084 1.2192
    CHANNELS 3 Zrotation Xrotation Yrotation
    JOINT rThigh
    {
      OFFSET 0 -1.70687 -2.19456
      CHANNELS 3 Zrotation Xrotation Yrotation
      JOINT rShin
      {
        OFFSET 0 -36.8199 0.73152
        CHANNELS 3 Zrotation Xrotation Yrotation
        JOINT rFoot
        {
          OFFSET 0.73152 -45.1104 -5.12064
          CHANNELS 3 Zrotation Xrotation Yrotation
          End Site
          {
            OFFSET -1.1221 -3.69964 12.103
          }
        }
      }
    }
  }
  JOINT lButtock
  {
    OFFSET 8.77824 4.35084 1.2192
    CHANNELS 3 Zrotation Xrotation Yrotation
    JOINT lThigh
    {
      OFFSET 0 -1.70687 -2.19456
      CHANNELS 3 Zrotation Xrotation Yrotation
      JOINT lShin
      {
        OFFSET 0 -36.8199 0.73152
        CHANNELS 3 Zrotation Xrotation Yrotation
        JOINT lFoot
        {
          OFFSET -0.73152 -45.1104 -5.12064
          CHANNELS 3 Zrotation Xrotation Yrotation
          End Site
          {
            OFFSET 1.1221 -3.69964 12.103
          }
        }
      }
    }
  }
}
MOTION
Frames:	4
Frame Time:	0.03333
-19.549 57.1919 -104.32 3.525174379348755 21.385807037353516 4.793425559997559 -12.03404712677002 11.375768661499023 1.0602171421051025 5.773706912994385 -8.236802101135254 0.46472206711769104 -7.808462619781494 16.84930419921875 -8.997391700744629 13.626202583312988 -26.29230308532715 -14.668495178222656 -0.0 0.0 -0.0 -0.0 0.0 -0.0 -0.0 0.0 0.0 43.16060256958008 30.307096481323242 13.147403717041016 -28.120594024658203 -31.3861083984375 69.466796875 -0.04601740092039108 -5.097779273986816 -0.719173014163971 0.0 0.0 -0.0 0.0 0.0 -0.0 0.0 0.0 -0.0 7.730902194976807 5.47491455078125 0.4173222780227661 0.0 0.0 -0.0 2.905566453933716 0.9650754332542419 0.10300818830728531 0.0 0.0 -0.0 10.278596878051758 0.7318810820579529 0.026273518800735474 0.0 0.0 -0.0 2.221662998199463 -0.7334509491920471 -0.20832103490829468 -0.0 0.0 0.0 -60.422786712646484 53.83810043334961 -17.26799964904785 28.010099411010742 -40.35930252075195 -84.5689926147461 1.351386547088623 -30.91368865966797 4.832057952880859 -0.0 0.0 0.0 -0.0 0.0 0.0 -0.0 0.0 0.0 -7.730902194976807 5.47491455078125 -0.4173222780227661 -0.0 0.0 0.0 -2.905566453933716 0.9650754332542419 -0.10300818830728531 -0.0 0.0 0.0 -10.278596878051758 0.7318810820579529 -0.026273518800735474 -0.0 0.0 0.0 -2.221662998199463 -0.7334509491920471 0.20832103490829468 -0.0 0.0 -0.0 -47.973411560058594 -59.13371276855469 -44.516414642333984 -2.547940492630005 72.61190795898438 2.882077693939209 2.2310876846313477 -5.967697620391846 11.265999794006348 0.0 0.0 0.0 12.596198081970215 1.6969305276870728 4.2792582511901855 0.05624626576900482 46.6016960144043 -3.0891969203948975 16.848806381225586 -23.921302795410156 38.28940200805664
-19.5491 57.11350000000001 -104.324 3.5995230674743652 21.355215072631836 4.867996692657471 -11.986050605773926 11.59742259979248 1.166887640953064 5.721870422363281 -8.275530815124512 0.4885866641998291 -7.794832229614258 16.807395935058594 -9.033103942871094 13.758796691894531 -26.53559112548828 -14.683804512023926 -0.0 0.0 -0.0 -0.0 0.0 -0.0 -0.0 0.0 0.0 43.25349044799805 30.034894943237305 12.757203102111816 -28.141204833984375 -31.532001495361328 69.70020294189453 -0.030527876690030098 -4.981284141540527 -0.7018248438835144 0.0 0.0 -0.0 0.0 0.0 -0.0 0.0 0.0 -0.0 7.730902194976807 5.47491455078125 0.4173222780227661 0.0 0.0 -0.0 2.905566453933716 0.9650754332542419 0.10300818830728531 0.0 0.0 -0.0 10.278596878051758 0.7318810820579529 0.026273518800735474 0.0 0.0 -0.0 2.221662998199463 -0.7334509491920471 -0.20832103490829468 -0.0 0.0 0.0 -59.6847038269043 53.62999725341797 -18.0188045501709 28.02279281616211 -40.2910041809082 -84.44580078125 1.3566806316375732 -31.12650489807129 4.868439197540283 -0.0 0.0 -0.0 -0.0 0.0 -0.0 -0.0 0.0 -0.0 -7.730902194976807 5.47491455078125 -0.4173222780227661 -0.0 0.0 -0.0 -2.905566453933716 0.9650754332542419 -0.10300818830728531 -0.0 0.0 -0.0 -10.278596878051758 0.7318810820579529 -0.026273518800735474 -0.0 0.0 -0.0 -2.221662998199463 -0.7334509491920471 0.20832103490829468 -0.0 0.0 -0.0 -48.44621276855469 -59.15629577636719 -44.9796142578125 -2.599870204925537 72.86038970947266 2.930403232574463 2.2312920093536377 -5.901311874389648 11.325896263122559 0.0 0.0 0.0 12.540098190307617 1.6185684204101562 4.163878917694092 0.05767272040247917 46.70759963989258 -3.097416400909424 16.879796981811523 -23.822999954223633 38.44589614868164
-19.5243 57.052800000000005 -104.32599999999998 3.7376108169555664 21.505699157714844 4.974597454071045 -11.933755874633789 11.803136825561523 1.3528567552566528 5.595612049102783 -8.31712532043457 0.5335458517074585 -7.781121730804443 16.88240623474121 -9.087419509887695 14.009894371032715 -27.001693725585938 -14.700504302978516 -0.0 0.0 -0.0 -0.0 0.0 -0.0 -0.0 0.0 0.0 43.548004150390625 29.628795623779297 12.092296600341797 -28.164297103881836 -31.702205657958984 69.97370147705078 -0.028328578919172287 -4.798343181610107 -0.6761253476142883 -0.0 -0.0 -0.0 -0.0 -0.0 -0.0 -0.0 -0.0 -0.0 7.730902194976807 5.47491455078125 0.4173222780227661 -0.0 -0.0 -0.0 2.905566453933716 0.9650754332542419 0.10300818830728531 -0.0 -0.0 -0.0 10.278596878051758 0.7318810820579529 0.026273518800735474 -0.0 -0.0 -0.0 2.221662998199463 -0.7334509491920471 -0.20832103490829468 -0.0 0.0 0.0 -58.460487365722656 53.418006896972656 -19.321102142333984 28.054195404052734 -40.112205505371094 -84.12779998779297 1.3824701309204102 -31.383798599243164 4.918181419372559 -0.0 0.0 -0.0 -0.0 0.0 -0.0 -0.0 0.0 -0.0 -7.730902194976807 5.47491455078125 -0.4173222780227661 -0.0 0.0 -0.0 -2.905566453933716 0.9650754332542419 -0.10300818830728531 -0.0 0.0 -0.0 -10.278596878051758 0.7318810820579529 -0.026273518800735474 -0.0 0.0 -0.0 -2.221662998199463 -0.7334509491920471 0.20832103490829468 -0.0 0.0 -0.0 -49.1339111328125 -59.25408935546875 -45.65711212158203 -2.6701276302337646 73.1841812133789 2.9981672763824463 2.206857204437256 -5.722421646118164 11.38638973236084 0.0 0.0 0.0 12.433300971984863 1.494629144668579 4.063116550445557 0.05870597064495087 46.80640411376953 -3.1048848628997803 16.924602508544922 -23.756103515625 38.589195251464844
-19.512 57.0008 -104.33300000000001 3.8190882205963135 21.77979278564453 5.106510162353516 -11.797904014587402 12.092700958251953 1.4689617156982422 5.437764644622803 -8.429487228393555 0.5567628145217896 -7.753929138183594 16.976104736328125 -9.183862686157227 14.218395233154297 -27.554601669311523 -14.802091598510742 -0.0 0.0 -0.0 -0.0 0.0 -0.0 -0.0 0.0 -0.0 43.88770294189453 29.12570571899414 11.259408950805664 -28.182598114013672 -31.842802047729492 70.20079803466797 -0.04078586772084236 -4.665215015411377 -0.6575685739517212 0.0 0.0 0.0 0.0 0.0 0.0 0.0 0.0 0.0 7.730902194976807 5.47491455078125 0.4173222780227661 0.0 0.0 0.0 2.905566453933716 0.9650754332542419 0.10300818830728531 0.0 0.0 0.0 10.278596878051758 0.7318810820579529 0.026273518800735474 0.0 0.0 0.0 2.221662998199463 -0.7334509491920471 -0.20832103490829468 -0.0 0.0 -0.0 -56.721492767333984 53.169105529785156 -21.428401947021484 28.10899543762207 -39.80060958862305 -83.5619125366211 1.3853087425231934 -31.25477409362793 4.897756099700928 -0.0 0.0 -0.0 -0.0 0.0 -0.0 -0.0 0.0 -0.0 -7.730902194976807 5.47491455078125 -0.4173222780227661 -0.0 0.0 -0.0 -2.905566453933716 0.9650754332542419 -0.10300818830728531 -0.0 0.0 -0.0 -10.278596878051758 0.7318810820579529 -0.026273518800735474 -0.0 0.0 -0.0 -2.221662998199463 -0.7334509491920471 0.20832103490829468 -0.0 0.0 -0.0 -50.09059143066406 -59.32609939575195 -46.8031005859375 -2.7711234092712402 73.65911102294922 3.106484889984131 2.029766082763672 -5.40778923034668 10.898699760437012 0.0 0.0 0.0 12.375998497009277 1.2741632461547852 3.892705202102661 0.06059502810239792 46.909095764160156 -3.10964298248291 16.943017959594727 -23.7012939453125 38.667999267578125
